<svg width="24" height="24" viewBox="0 0 24 24" fill="none" xmlns="http://www.w3.org/2000/svg">
<g clip-path="url(#clip0_8_5099)">
<path d="M18.2941 14.8224L17.4726 14.3481L19.6739 13.7583L19.3101 12.4006L15.7511 13.3542L14.0724 12.385C14.0956 12.26 14.1083 12.1315 14.1083 12C14.1083 11.8684 14.0956 11.7398 14.0724 11.6149L15.7511 10.6457L19.3101 11.5994L19.6739 10.2416L17.4726 9.65177L18.2941 9.17747L21.8193 8.96588L22.3384 6.03095L19.5371 5.01305L17.5913 7.96016L16.7698 8.43446L17.3597 6.23317L16.0019 5.86939L15.0483 9.42842L13.3686 10.3982C13.174 10.2315 12.9489 10.0997 12.7027 10.0124V8.0742L15.3081 5.46879L14.3141 4.47488L12.7027 6.08633V5.13772L14.2771 1.98876L11.9999 0L9.7226 1.98886L11.2971 5.13782V6.08642L9.68558 4.47497L8.69167 5.46889L11.297 8.0743V10.0125C11.0509 10.0998 10.8258 10.2316 10.6311 10.3983L8.95143 9.42852L7.99781 5.86949L6.64008 6.23326L7.22992 8.43456L6.40843 7.96025L4.46259 5.01314L1.66138 6.03104L2.18047 8.96597L5.70567 9.17757L6.52716 9.65187L4.32587 10.2417L4.68969 11.5994L8.24871 10.6458L9.92735 11.615C9.90421 11.74 9.89146 11.8685 9.89146 12C9.89146 12.1316 9.90416 12.2602 9.92735 12.3851L8.24871 13.3543L4.68969 12.4006L4.32587 13.7584L6.52716 14.3482L5.70567 14.8225L2.18047 15.034L1.66138 17.969L4.46263 18.9869L6.40848 16.0397L7.23002 15.5654L6.64017 17.7667L7.99791 18.1306L8.95152 14.5715L10.6312 13.6018C10.8259 13.7684 11.051 13.9003 11.2971 13.9875V15.9258L8.69177 18.5311L9.68568 19.525L11.2972 17.9135V18.8621L9.72269 22.0111L12 24L14.2773 22.0111L12.7028 18.8621V17.9135L14.3143 19.525L15.3082 18.5311L12.7028 15.9258V13.9875C12.949 13.9003 13.1741 13.7684 13.3688 13.6018L15.0484 14.5715L16.0021 18.1306L17.3598 17.7667L16.7699 15.5654L17.5915 16.0397L19.5373 18.9869L22.3386 17.969L21.8195 15.034L18.2941 14.8224Z" fill="#FF4646"/>
</g>
<defs>
<clipPath id="clip0_8_5099">
<rect width="24" height="24" fill="white"/>
</clipPath>
</defs>
</svg>
